#!OML:ASF E:/inclinewalkrobotboard/Project1/Captureday1/Session1/subject1.ASF
:FULLY-SPECIFIED
:DEGREES
138
root 0 0 0 -4.475229640749353 -2.295314062506544 1.755654156444344
lowerback 11.964266924455863 0.038799355356660126 -2.469213919474762
upperback 1.0828597589726914 -0.18677444304157564 0.8447981816776395
thorax -5.614199897849157 -0.01612704797762865 2.2963005038533804
lowerneck -16.29309583539933 -2.6824452983481715 -2.1990722632008226
upperneck 19.133727575763288 -3.184068152658253 0.3742865784181948
head 8.73793787089908 -1.6424716195796236 0.09523079343379431
rclavicle 1.549739933041029E-15 -1.5503691390692787E-16
rhumerus -31.6374359134245 -23.121027154012147 -76.2766758757225
rradius 26.176029339109128
rwrist 2.789146896127156
rhand -18.89152728218667 22.91221684109027
rfingers 7.125020000000022
rthumb 7.411601040623951 -7.005537976274358
lclavicle -1.1066237236670861E-15 4.0000020500212663E-16
lhumerus -31.065123246992744 -2.7909307037960494 83.52461373562775
lradius 29.41367579611762
lwrist 6.753278975475121
lhand -27.608492255876943 24.326394661222558
lfingers 7.125020000000019
lthumb -0.9974164350373664 54.31467361869
rfemur -29.151049205627682 -0.43932698286036054 21.1696423271475
rtibia 60.941746907719775
rfoot -7.166717380498755 -8.067649555693292
rtoes 4.4435610932822405
lfemur 0.20753114601735323 -3.4111896943730846 -26.715546421907355
ltibia 25.611576069249985
lfoot -16.37871118246311 1.0540516821808352
ltoes -2.6617042867985568
139
root 0 0 0 -3.1788278992698817 -1.12477853103911 2.645860702609714
lowerback 11.724745691280873 -0.7532568576512876 -3.5945269892860425
upperback 0.8909645207242222 -1.3585594094284439 1.0969840443532648
thorax -5.564727594219486 -0.5650228985748746 3.3697949086967514
lowerneck -17.450929793008147 -2.617254015327748 -2.383749059471486
upperneck 17.66223861366385 -2.999048900699533 0.2846036991414056
head 8.441754460930408 -1.580422196103582 0.11388811822412823
rclavicle 2.0547009782685377E-15 -6.884189015412227E-16
rhumerus -31.447576670195165 -22.921355375615583 -76.21177030958425
rradius 26.48154741697114
rwrist 2.6135779824120204
rhand -18.90202545365652 22.9547636528166
rfingers 7.125020000000023
rthumb 7.400786479031957 -6.962470415730589
lclavicle 3.583548658408357E-16 -3.970202860638022E-16
lhumerus -27.05180622649074 -4.78223755781543 82.85208498154266
lradius 31.098938702665485
lwrist 7.1023397017509335
lhand -27.925826397700106 24.74628192809272
lfingers 7.1250200000000055
lthumb -1.303672263890066 54.73536546995368
rfemur -31.925987781734023 0.47047413406639826 20.314032828877025
rtibia 54.916652924648126
rfoot -7.3251329443673985 -10.065439754489141
rtoes 1.702895195633488
lfemur 5.000345903049442 -3.1327408181615253 -28.343321707920772
ltibia 22.374383868040436
lfoot -17.46923037299873 0.7117500782279578
ltoes 0.2908267450331721
140
root 0 0 0 -1.8994599629519033 -0.0916174277618449 3.1961367416887536
lowerback 10.541112897424558 -1.3233733203117093 -4.504555736452474
upperback 0.6315071358787672 -2.2116069250375867 1.2527511575157189
thorax -5.084259992778227 -0.9719157795358142 4.159484761141
lowerneck -17.61906198004946 -2.4867356946793047 -2.311483647396072
upperneck 18.393472680289456 -2.8166660062014213 0.10198414590752503
head 8.69839629912931 -1.4818757397726279 0.05609695684792926
rclavicle 3.1222828293208095E-15 -9.393949451568087E-16
rhumerus -31.659257569638935 -23.323370852372143 -76.08961089638838
rradius 26.168577348165584
rwrist 2.8522465834621658
rhand -18.869305131811213 22.906662929572246
rfingers 7.125020000000022
rthumb 7.433114866250911 -7.016663182347891
lclavicle 2.1421708940587873E-15 -6.186808856886922E-16
lhumerus -24.831199554778756 -5.603159296289615 82.24432549948716
lradius 31.89780225869883
lwrist 7.35364227687818
lhand -28.096241981097226 24.984739917866076
lfingers 7.125020000000001
lthumb -1.4710652502795085 54.97552792933562
rfemur -38.16630589060405 3.4823839966313868 18.302543742181648
rtibia 39.01372276884776
rfoot -7.5237381016261295 -15.123503287705446
rtoes -3.5015134558893646
lfemur 8.78178011091805 -2.9136797896899664 -29.531428986732195
ltibia 19.954424188230043
lfoot -18.10612373965716 0.21982637211804512
ltoes 2.246912518039114
141
root 0 0 0 -1.493624288814761 0.3481289655651367 3.1344176924801803
lowerback 10.227387878521416 -1.4774733452316262 -4.739953037618161
upperback 0.4929363278918606 -2.4250920972131196 1.352582145415851
thorax -5.047336422513653 -1.0754902430192934 4.419466972759873
lowerneck -17.37400932392465 -2.478561203078547 -2.1163467255980786
upperneck 19.847665895891005 -2.8263088005067045 -0.17017989868300232
head 9.174365277863846 -1.4805698428503948 -0.07292879808446356
rclavicle 4.104419664798439E-15 -1.096547932049672E-15
rhumerus -32.098045257720834 -23.950687947367776 -75.95218286569605
rradius 25.644668340672666
rwrist 3.1671548378514336
rhand -18.840405322736583 22.726433085544993
rfingers 7.1250200000000214
rthumb 7.462202240669258 -7.200339310074096
lclavicle 3.3269288551368575E-15 -7.176285550278772E-16
lhumerus -24.16865867969571 -5.64570848239806 81.92219712878007
lradius 32.05970104529038
lwrist 7.467070603031859
lhand -28.126446117791787 25.09980248200087
lfingers 7.125020000000002
lthumb -1.5029413167667975 55.092546118849825
rfemur -34.60662042342519 6.652782146517563 19.355103996461487
rtibia 22.581885896763225
rfoot -8.78370936707651 -15.67766715484446
rtoes -4.402035099621755
lfemur 10.670705049395504 -3.1517709936832183 -29.723923770292004
ltibia 19.627315248457432
lfoot -17.806664546164104 -0.47403471936260155
ltoes 2.161148594290733
